<svg version="1.1" width="20px" height="20px" id="Layer_1" xmlns="http://www.w3.org/2000/svg" xmlns:xlink="http://www.w3.org/1999/xlink" x="0px" y="0px"
	 viewBox="0 0 492 492" xml:space="preserve">
<g>
	<g>
		<path d="M265.2,382.7l218.9-218.9c5.1-5.1,7.9-11.8,7.9-19s-2.8-14-7.9-19L468,109.5c-10.5-10.5-27.6-10.5-38.1,0L246.1,293.4
			L62,109.3c-5.1-5.1-11.8-7.9-19-7.9c-7.2,0-14,2.8-19,7.9L7.9,125.5c-5.1,5.1-7.9,11.8-7.9,19s2.8,14,7.9,19L227,382.7
			c5.1,5.1,11.9,7.9,19.1,7.8C253.3,390.5,260.1,387.8,265.2,382.7z"/>
	</g>
</g>
</svg>
